<svg width="191" height="128" viewBox="0 0 191 128" fill="none" 
    xmlns="http://www.w3.org/2000/svg">
    <style>
        g:hover #line {
            stroke: #F00;
        }
        #line {
            stroke-dasharray: var(--length);
            stroke-dashoffset: calc(var(--length) * -1);
            animation: loop 5s cubic-bezier(0.39, 0.575, 0.565, 1) infinite alternate;
        }

        @keyframes loop {
            0%, 20% {
                stroke-dashoffset: var(--length);
            }
            40% {
                stroke-dashoffset: 0;
            }
            100% {
                stroke-dashoffset: 0;
            }
        }
    </style>
    <mask id="mask0" mask-type="alpha" maskUnits="userSpaceOnUse" x="4" y="8" width="187" height="120">
        <path d="M35.016 28.128C40.008 20.192 42.44 14.816 42.44 11.872C42.44 10.08 41.16 8.79999 38.984 8.79999C37.32 8.79999 35.4 10.464 34.248 13.28C25.16 34.656 13.384 63.072 4.936 87.648C4.552 88.928 4.424 89.568 4.424 90.72C4.424 92.512 5.704 93.28 6.984 93.28C9.544 93.28 10.312 91.104 10.824 89.44C14.024 79.2 18.76 66.656 24.008 60.256C30.28 52.704 41.416 44.384 48.2 44.384C51.016 44.384 52.68 46.048 52.68 48.864C52.68 57.824 40.648 70.112 40.648 81.504C40.648 88.928 45 93.28 51.656 93.28C62.152 93.28 71.496 81.632 79.432 69.344C79.816 68.704 79.944 68.064 79.944 67.552C79.944 66.144 78.792 64.992 77.384 64.992C76.616 64.992 75.848 65.376 75.208 66.4C67.912 77.664 59.464 88.16 52.68 88.16C49.48 88.16 47.432 86.112 47.432 82.4C47.432 71.136 59.208 60.256 59.208 49.376C59.208 43.232 54.6 39.136 48.328 39.136C40.904 39.136 31.56 45.792 24.52 53.6L35.016 28.128Z" fill="black"/>
        <path d="M93.554 87.776C86.002 87.776 80.882 83.808 80.882 76C80.882 74.592 81.01 73.056 81.138 71.648C101.874 69.728 118.258 60.128 118.258 49.76C118.258 42.976 113.778 39.136 106.098 39.136C92.402 39.136 73.586 54.752 73.586 75.872C73.586 87.136 80.498 93.28 92.914 93.28C107.506 93.28 121.842 83.168 130.802 69.344C131.058 68.832 131.314 68.192 131.314 67.68C131.314 66.144 130.29 64.992 128.626 64.992C127.474 64.992 126.578 66.4 126.578 66.4C118.258 79.328 104.05 87.776 93.554 87.776ZM105.97 44.384C109.17 44.384 111.346 46.176 111.346 48.992C111.346 56.672 98.93 64.352 82.418 66.4C86.514 53.6 98.162 44.384 105.97 44.384Z" fill="black"/>
        <path d="M149.537 94.816C126.753 101.344 114.081 105.184 114.081 116.704C114.081 123.232 119.841 127.584 126.881 127.584C138.785 127.584 147.873 115.04 154.913 98.528C171.297 92.128 181.665 82.4 190.113 69.216C190.113 69.216 190.625 68.192 190.625 67.552C190.625 66.016 189.601 64.992 187.937 64.992C186.785 64.992 185.889 66.4 185.889 66.4C178.209 78.56 167.713 87.904 157.345 92.128L161.697 79.584C163.873 73.056 167.457 61.024 170.657 53.984C174.241 48.224 176.417 44.384 176.417 42.208C176.417 40.416 175.137 39.136 172.961 39.136C170.913 39.136 169.121 41.568 166.177 48.352C162.721 56.416 158.497 66.144 154.017 72.544C148.129 80.992 142.113 87.776 136.353 87.776C133.409 87.776 130.977 85.728 130.977 80.096C130.977 72.8 135.329 62.432 139.425 53.984C143.009 48.224 144.929 44.384 144.929 42.208C144.929 40.416 143.649 39.136 141.473 39.136C139.553 39.136 137.505 42.336 133.537 50.016C129.057 58.848 123.937 71.392 123.937 79.84C123.937 88.8 128.673 93.28 135.713 93.28C142.497 93.28 149.153 86.88 155.041 78.688C153.633 82.784 152.097 88.032 149.537 94.816ZM126.881 122.464C123.169 122.464 120.353 120.544 120.353 116.704C120.353 109.28 130.209 105.44 147.361 100.576C141.985 113.888 133.409 122.464 126.881 122.464Z" fill="black"/>
    </mask>
    <g mask="url(#mask0)" style="--length: 854.5px;">
        <path id="line" d="M7 94C7 94 11.5119 74.632 15.5608 62.3522C22.5947 41.0191 39 9.5 39 9.5L13.7204 64.4379C35.4806 64.4379 32.4629 31.7188 51.5 43C65 51 38.5 69.5 46 88C52 102.8 64.8333 81.6667 73.5 68.5C89 79 124.995 57.3412 114 43C102.5 28 60.5 71 82 88C99.2 101.6 131.167 64.3333 143.5 43C136.167 54 126.87 78.5928 130 86.5C139.5 110.5 162 50.5 177.5 41C171 56.8333 145.492 111.008 140 116.5C136.5 120 122.457 137.588 118.5 120C114 100 135.5 106.5 164 94C176.558 88.4921 190.833 68.5 189 64" stroke="black" stroke-width="10" stroke-linejoin="round"/>
    </g>
</svg>
